999
dxflib 2.2.0.0
  0
SECTION
  2
HEADER
  9
$ACADVER
  1
AC1015
  9
$HANDSEED
  5
FFFF
  9
$DIMLIM
 70
0
  9
$DIMTIX
 70
0
  9
$AUNITS
 70
0
  9
$QTEXTMODE
 70
0
  9
$COORDS
 70
1
  9
$USERR1
 40
0.0
  9
$DIMALTU
 70
2
  9
$USERR2
 40
0.0
  9
$USERR3
 40
0.0
  9
$USERR4
 40
0.0
  9
$LIMMAX
 10
12.0
 20
9.0
  9
$USERR5
 40
0.0
  9
$PELEVATION
 40
0.0
  9
$DIMALTZ
 70
0
  9
$DIMFIT
 70
3
  9
$TILEMODE
 70
1
  9
$PEXTMIN
 10
100000000000000000000.0
 20
100000000000000000000.0
 30
100000000000000000000.0
  9
$TDUSRTIMER
 40
0.0000000116
  9
$DWGCODEPAGE
  3
ansi_1252
  9
$DIMUNIT
 70
2
  9
$DIMSOXD
 70
0
  9
$DIMTZIN
 70
0
  9
$SPLINETYPE
 70
6
  9
$DIMLFAC
 40
1.0
  9
$DIMSE1
 70
0
  9
$FILLETRAD
 40
0.5
  9
$DIMSE2
 70
0
  9
$TEXTSTYLE
  7
STANDARD
  9
$DIMTSZ
 40
0.0
  9
$PUCSXDIR
 10
1.0
 20
0.0
 30
0.0
  9
$DIMTXSTY
  7
STANDARD
  9
$PLIMMAX
 10
12.0
 20
9.0
  9
$DIMTM
 40
0.0
  9
$UCSORG
 10
0.0
 20
0.0
 30
0.0
  9
$DIMTP
 40
0.0
  9
$PSLTSCALE
 70
1
  9
$ANGBASE
 50
0.0
  9
$PUCSYDIR
 10
0.0
 20
1.0
 30
0.0
  9
$DIMASZ
 40
0.18
  9
$INSBASE
 10
0.0
 20
0.0
 30
0.0
  9
$UNITMODE
 70
0
  9
$EXTMAX
 10
-100000000000000000000.0
 20
-100000000000000000000.0
 30
-100000000000000000000.0
  9
$ELEVATION
 40
0.0
  9
$TDCREATE
 40
2455540.0061201620846987
  9
$DIMDEC
 70
4
  9
$CELTYPE
  6
BYLAYER
  9
$MENU
  1
.
  9
$ANGDIR
 70
0
  9
$DIMALTTD
 70
2
  9
$TREEDEPTH
 70
3020
  9
$LTSCALE
 40
1.0
  9
$TDUPDATE
 40
2455540.0061201741918921
  9
$DIMTOLJ
 70
1
  9
$DIMCEN
 40
0.09
  9
$DIMTVP
 40
0.0
  9
$TRACEWID
 40
0.05
  9
$CMLSTYLE
  2
STANDARD
  9
$DISPSILH
 70
0
  9
$DIMSTYLE
  2
STANDARD
  9
$SKETCHINC
 40
0.1
  9
$FILLMODE
 70
1
  9
$PLINEGEN
 70
0
  9
$THICKNESS
 40
0.0
  9
$PUCSORG
 10
0.0
 20
0.0
 30
0.0
  9
$CELTSCALE
 40
1.0
  9
$DIMALTTZ
 70
0
  9
$INSUNITS
 70
4
  9
$PLINEWID
 40
0.0
  9
$PEXTMAX
 10
-100000000000000000000.0
 20
-100000000000000000000.0
 30
-100000000000000000000.0
  9
$DIMJUST
 70
0
  9
$UCSYDIR
 10
0.0
 20
1.0
 30
0.0
  9
$PDSIZE
 40
0.0
  9
$ATTDIA
 70
0
  9
$HANDLING
 70
1
  9
$DIMUPT
 70
0
  9
$DIMTAD
 70
0
  9
$UCSXDIR
 10
1.0
 20
0.0
 30
0.0
  9
$MAXACTVP
 70
64
  9
$DIMSAH
 70
0
  9
$USERI1
 70
0
  9
$USERI2
 70
0
  9
$USERI3
 70
0
  9
$SKPOLY
 70
0
  9
$USERI4
 70
0
  9
$USERI5
 70
0
  9
$LIMMIN
 10
0.0
 20
0.0
  9
$MIRRTEXT
 70
1
  9
$TEXTSIZE
 40
0.2
  9
$DRAGMODE
 70
2
  9
$DIMGAP
 40
0.09
  9
$LUPREC
 70
4
  9
$CECOLOR
 62
256
  9
$DIMSD1
 70
0
  9
$DIMSD2
 70
0
  9
$WORLDVIEW
 70
1
  9
$DELOBJ
 70
1
  9
$PLIMCHECK
 70
0
  9
$DIMTFAC
 40
1.0
  9
$CMLJUST
 70
0
  9
$USRTIMER
 70
1
  9
$SURFU
 70
6
  9
$SURFV
 70
6
  9
$ATTREQ
 70
1
  9
$DIMASO
 70
1
  9
$DIMDLE
 40
0.0
  9
$EXTMIN
 10
100000000000000000000.0
 20
100000000000000000000.0
 30
100000000000000000000.0
  9
$DIMDLI
 40
0.38
  9
$LUNITS
 70
2
  9
$DIMCLRD
 70
0
  9
$SHADEDIF
 70
70
  9
$DIMCLRE
 70
0
  9
$SPLINESEGS
 70
8
  9
$DIMRND
 40
0.0
  9
$DIMALT
 70
0
  9
$DIMCLRT
 70
0
  9
$DIMTOH
 70
1
  9
$VISRETAIN
 70
1
  9
$SAVEIMAGES
 70
1
  9
$SHADEDGE
 70
3
  9
$DIMTOL
 70
0
  9
$SURFTYPE
 70
6
  9
$CHAMFERA
 40
0.5
  9
$SURFTAB1
 70
6
  9
$CHAMFERB
 40
0.5
  9
$SURFTAB2
 70
6
  9
$CHAMFERC
 40
1.0
  9
$AUPREC
 70
0
  9
$CHAMFERD
 40
0.0
  9
$DIMTDEC
 70
4
  9
$OSMODE
 70
37
  9
$PDMODE
 70
0
  9
$SPLFRAME
 70
0
  9
$PLIMMIN
 10
0.0
 20
0.0
  9
$LIMCHECK
 70
0
  9
$PINSBASE
 10
0.0
 20
0.0
 30
0.0
  9
$ORTHOMODE
 70
0
  9
$CLAYER
  8
0
  9
$DIMSHO
 70
1
  9
$DIMTOFL
 70
0
  9
$DIMTXT
 40
0.18
  9
$DIMEXE
 40
0.18
  9
$TDINDWG
 40
0.0000000116
  9
$REGENMODE
 70
1
  9
$ATTMODE
 70
1
  9
$PICKSTYLE
 70
1
  9
$CMLSCALE
 40
1.0
  9
$DIMTIH
 70
1
  9
$DIMZIN
 70
0
  9
$DIMSCALE
 40
1.0
  9
$DIMALTD
 70
2
  9
$DIMAUNIT
 70
0
  9
$DIMALTF
 40
25.3999999999999986
  9
$DIMEXO
 40
0.0625
  0
ENDSEC
  0
SECTION
  2
TABLES
  0
TABLE
  2
VPORT
  5
8
100
AcDbSymbolTable
 70
1
  0
VPORT
  5
30
100
AcDbSymbolTableRecord
100
AcDbViewportTableRecord
  2
*Active
 70
0
 10
0.0
 20
0.0
 11
1.0
 21
1.0
 12
286.3055555555554861
 22
148.5
 13
0.0
 23
0.0
 14
10.0
 24
10.0
 15
10.0
 25
10.0
 16
0.0
 26
0.0
 36
1.0
 17
0.0
 27
0.0
 37
0.0
 40
297.0
 41
1.92798353909465
 42
50.0
 43
0.0
 44
0.0
 50
0.0
 51
0.0
 71
0
 72
100
 73
1
 74
3
 75
1
 76
1
 77
0
 78
0
281
0
 65
1
110
0.0
120
0.0
130
0.0
111
1.0
121
0.0
131
0.0
112
0.0
122
1.0
132
0.0
 79
0
146
0.0
  0
ENDTAB
  0
TABLE
  2
LTYPE
  5
5
100
AcDbSymbolTable
 70
21
  0
LTYPE
  5
14
100
AcDbSymbolTableRecord
100
AcDbLinetypeTableRecord
  2
ByBlock
 70
0
  3

 72
65
 73
0
 40
0.0
  0
LTYPE
  5
15
100
AcDbSymbolTableRecord
100
AcDbLinetypeTableRecord
  2
ByLayer
 70
0
  3

 72
65
 73
0
 40
0.0
  0
LTYPE
  5
16
100
AcDbSymbolTableRecord
100
AcDbLinetypeTableRecord
  2
CONTINUOUS
 70
0
  3
Solid line
 72
65
 73
0
 40
0.0
  0
LTYPE
  5
31
100
AcDbSymbolTableRecord
100
AcDbLinetypeTableRecord
  2
DOT
 70
0
  3
Dot . . . . . . . . . . . . . . . . . . . . . .
 72
65
 73
2
 40
6.3499999999999996
 49
0.0
 74
0
 49
-6.3499999999999996
 74
0
  0
LTYPE
  5
32
100
AcDbSymbolTableRecord
100
AcDbLinetypeTableRecord
  2
DOT2
 70
0
  3
Dot (.5x) .....................................
 72
65
 73
2
 40
3.1749999999999998
 49
0.0
 74
0
 49
-3.1749999999999998
 74
0
  0
LTYPE
  5
33
100
AcDbSymbolTableRecord
100
AcDbLinetypeTableRecord
  2
DOTX2
 70
0
  3
Dot (2x) .  .  .  .  .  .  .  .  .  .  .  .  .
 72
65
 73
2
 40
12.6999999999999993
 49
0.0
 74
0
 49
-12.6999999999999993
 74
0
  0
LTYPE
  5
34
100
AcDbSymbolTableRecord
100
AcDbLinetypeTableRecord
  2
DASHED
 70
0
  3
Dashed __ __ __ __ __ __ __ __ __ __ __ __ __ _
 72
65
 73
2
 40
19.0500000000000007
 49
12.6999999999999993
 74
0
 49
-6.3499999999999996
 74
0
  0
LTYPE
  5
35
100
AcDbSymbolTableRecord
100
AcDbLinetypeTableRecord
  2
DASHED2
 70
0
  3
Dashed (.5x) _ _ _ _ _ _ _ _ _ _ _ _ _ _ _ _ _
 72
65
 73
2
 40
9.5250000000000004
 49
6.3499999999999996
 74
0
 49
-3.1749999999999998
 74
0
  0
LTYPE
  5
36
100
AcDbSymbolTableRecord
100
AcDbLinetypeTableRecord
  2
DASHEDX2
 70
0
  3
Dashed (2x) ____  ____  ____  ____  ____  ___
 72
65
 73
2
 40
38.1000000000000014
 49
25.3999999999999986
 74
0
 49
-12.6999999999999993
 74
0
  0
LTYPE
  5
37
100
AcDbSymbolTableRecord
100
AcDbLinetypeTableRecord
  2
DASHDOT
 70
0
  3
Dash dot __ . __ . __ . __ . __ . __ . __ . __
 72
65
 73
4
 40
25.3999999999999986
 49
12.6999999999999993
 74
0
 49
-6.3499999999999996
 74
0
 49
0.0
 74
0
 49
-6.3499999999999996
 74
0
  0
LTYPE
  5
38
100
AcDbSymbolTableRecord
100
AcDbLinetypeTableRecord
  2
DASHDOT2
 70
0
  3
Dash dot (.5x) _._._._._._._._._._._._._._._.
 72
65
 73
4
 40
12.6999999999999993
 49
6.3499999999999996
 74
0
 49
-3.1749999999999998
 74
0
 49
0.0
 74
0
 49
-3.1749999999999998
 74
0
  0
LTYPE
  5
39
100
AcDbSymbolTableRecord
100
AcDbLinetypeTableRecord
  2
DASHDOTX2
 70
0
  3
Dash dot (2x) ____  .  ____  .  ____  .  ___
 72
65
 73
4
 40
50.7999999999999972
 49
25.3999999999999986
 74
0
 49
-12.6999999999999993
 74
0
 49
0.0
 74
0
 49
-12.6999999999999993
 74
0
  0
LTYPE
  5
3A
100
AcDbSymbolTableRecord
100
AcDbLinetypeTableRecord
  2
DIVIDE
 70
0
  3
Divide ____ . . ____ . . ____ . . ____ . . ____
 72
65
 73
6
 40
31.75
 49
12.6999999999999993
 74
0
 49
-6.3499999999999996
 74
0
 49
0.0
 74
0
 49
-6.3499999999999996
 74
0
 49
0.0
 74
0
 49
-6.3499999999999996
 74
0
  0
LTYPE
  5
3B
100
AcDbSymbolTableRecord
100
AcDbLinetypeTableRecord
  2
DIVIDE2
 70
0
  3
Divide (.5x) __..__..__..__..__..__..__..__.._
 72
65
 73
6
 40
15.875
 49
6.3499999999999996
 74
0
 49
-3.1749999999999998
 74
0
 49
0.0
 74
0
 49
-3.1749999999999998
 74
0
 49
0.0
 74
0
 49
-3.1749999999999998
 74
0
  0
LTYPE
  5
3C
100
AcDbSymbolTableRecord
100
AcDbLinetypeTableRecord
  2
DIVIDEX2
 70
0
  3
Divide (2x) ________  .  .  ________  .  .  _
 72
65
 73
6
 40
63.5
 49
25.3999999999999986
 74
0
 49
-12.6999999999999993
 74
0
 49
0.0
 74
0
 49
-12.6999999999999993
 74
0
 49
0.0
 74
0
 49
-12.6999999999999993
 74
0
  0
LTYPE
  5
3D
100
AcDbSymbolTableRecord
100
AcDbLinetypeTableRecord
  2
CENTER
 70
0
  3
Center ____ _ ____ _ ____ _ ____ _ ____ _ ____
 72
65
 73
4
 40
50.7999999999999972
 49
31.75
 74
0
 49
-6.3499999999999996
 74
0
 49
6.3499999999999996
 74
0
 49
-6.3499999999999996
 74
0
  0
LTYPE
  5
3E
100
AcDbSymbolTableRecord
100
AcDbLinetypeTableRecord
  2
CENTER2
 70
0
  3
Center (.5x) ___ _ ___ _ ___ _ ___ _ ___ _ ___
 72
65
 73
4
 40
28.5749999999999993
 49
19.0500000000000007
 74
0
 49
-3.1749999999999998
 74
0
 49
3.1749999999999998
 74
0
 49
-3.1749999999999998
 74
0
  0
LTYPE
  5
3F
100
AcDbSymbolTableRecord
100
AcDbLinetypeTableRecord
  2
CENTERX2
 70
0
  3
Center (2x) ________  __  ________  __  _____
 72
65
 73
4
 40
101.5999999999999943
 49
63.5
 74
0
 49
-12.6999999999999993
 74
0
 49
12.6999999999999993
 74
0
 49
-12.6999999999999993
 74
0
  0
LTYPE
  5
40
100
AcDbSymbolTableRecord
100
AcDbLinetypeTableRecord
  2
BORDER
 70
0
  3
Border __ __ . __ __ . __ __ . __ __ . __ __ .
 72
65
 73
6
 40
44.4500000000000028
 49
12.6999999999999993
 74
0
 49
-6.3499999999999996
 74
0
 49
12.6999999999999993
 74
0
 49
-6.3499999999999996
 74
0
 49
0.0
 74
0
 49
-6.3499999999999996
 74
0
  0
LTYPE
  5
41
100
AcDbSymbolTableRecord
100
AcDbLinetypeTableRecord
  2
BORDER2
 70
0
  3
Border (.5x) __.__.__.__.__.__.__.__.__.__.__.
 72
65
 73
6
 40
22.2250000000000014
 49
6.3499999999999996
 74
0
 49
-3.1749999999999998
 74
0
 49
6.3499999999999996
 74
0
 49
-3.1749999999999998
 74
0
 49
0.0
 74
0
 49
-3.1749999999999998
 74
0
  0
LTYPE
  5
42
100
AcDbSymbolTableRecord
100
AcDbLinetypeTableRecord
  2
BORDERX2
 70
0
  3
Border (2x) ____  ____  .  ____  ____  .  ___
 72
65
 73
6
 40
88.9000000000000057
 49
25.3999999999999986
 74
0
 49
-12.6999999999999993
 74
0
 49
25.3999999999999986
 74
0
 49
-12.6999999999999993
 74
0
 49
0.0
 74
0
 49
-12.6999999999999993
 74
0
  0
ENDTAB
  0
TABLE
  2
LAYER
  5
2
100
AcDbSymbolTable
 70
6
  0
LAYER
  5
10
100
AcDbSymbolTableRecord
100
AcDbLayerTableRecord
  2
0
 70
1
 62
7
  6
CONTINUOUS
290
1
390
F
  0
LAYER
  5
43
100
AcDbSymbolTableRecord
100
AcDbLayerTableRecord
  2
invader1
 70
4
 62
1
  6
CONTINUOUS
290
1
370
0
390
F
  0
LAYER
  5
44
100
AcDbSymbolTableRecord
100
AcDbLayerTableRecord
  2
invader2
 70
4
 62
2
  6
CONTINUOUS
290
1
370
0
390
F
  0
LAYER
  5
45
100
AcDbSymbolTableRecord
100
AcDbLayerTableRecord
  2
invader3
 70
4
 62
3
  6
CONTINUOUS
290
1
370
0
390
F
  0
LAYER
  5
46
100
AcDbSymbolTableRecord
100
AcDbLayerTableRecord
  2
invader4
 70
4
 62
4
  6
CONTINUOUS
290
1
370
0
390
F
  0
LAYER
  5
47
100
AcDbSymbolTableRecord
100
AcDbLayerTableRecord
  2
invader5
 70
4
 62
5
  6
CONTINUOUS
290
1
370
0
390
F
  0
ENDTAB
  0
TABLE
  2
STYLE
  5
3
100
AcDbSymbolTable
 70
1
  0
STYLE
  5
11
100
AcDbSymbolTableRecord
100
AcDbTextStyleTableRecord
  2
Standard
 70
0
 40
0.0
 41
0.75
 50
0.0
 71
0
 42
2.5
  3
txt
  4

  0
ENDTAB
  0
TABLE
  2
VIEW
  5
6
100
AcDbSymbolTable
 70
0
  0
ENDTAB
  0
TABLE
  2
UCS
  5
7
100
AcDbSymbolTable
 70
0
  0
ENDTAB
  0
TABLE
  2
APPID
  5
9
100
AcDbSymbolTable
 70
1
  0
APPID
  5
12
100
AcDbSymbolTableRecord
100
AcDbRegAppTableRecord
  2
ACAD
 70
0
  0
ENDTAB
  0
TABLE
  2
DIMSTYLE
  5
A
100
AcDbSymbolTable
 70
1
100
AcDbDimStyleTable
 71
0
  0
DIMSTYLE
105
27
100
AcDbSymbolTableRecord
100
AcDbDimStyleTableRecord
  2
Standard
 41
0.18
 42
0.0625
 43
3.75
 44
0.18
 70
0
 73
0
 74
0
 77
1
 78
8
140
0.18
141
2.5
143
0.03937007874016
147
0.09
171
3
172
1
271
2
272
2
274
3
278
44
283
0
284
8
340
11
  0
ENDTAB
  0
TABLE
  2
BLOCK_RECORD
  5
1
100
AcDbSymbolTable
 70
1
  0
BLOCK_RECORD
  5
1F
100
AcDbSymbolTableRecord
100
AcDbBlockTableRecord
  2
*Model_Space
340
22
  0
BLOCK_RECORD
  5
1B
100
AcDbSymbolTableRecord
100
AcDbBlockTableRecord
  2
*Paper_Space
340
1E
  0
BLOCK_RECORD
  5
23
100
AcDbSymbolTableRecord
100
AcDbBlockTableRecord
  2
*Paper_Space0
340
26
  0
BLOCK_RECORD
  5
48
100
AcDbSymbolTableRecord
100
AcDbBlockTableRecord
  2
*U1
340
0
  0
BLOCK_RECORD
  5
49
100
AcDbSymbolTableRecord
100
AcDbBlockTableRecord
  2
*U2
340
0
  0
BLOCK_RECORD
  5
4A
100
AcDbSymbolTableRecord
100
AcDbBlockTableRecord
  2
*U3
340
0
  0
BLOCK_RECORD
  5
4B
100
AcDbSymbolTableRecord
100
AcDbBlockTableRecord
  2
*U4
340
0
  0
BLOCK_RECORD
  5
4C
100
AcDbSymbolTableRecord
100
AcDbBlockTableRecord
  2
*U5
340
0
  0
ENDTAB
  0
ENDSEC
  0
SECTION
  2
BLOCKS
  0
BLOCK
  5
20
100
AcDbEntity
  8
0
100
AcDbBlockBegin
  2
*Model_Space
 70
0
 10
0.0
 20
0.0
 30
0.0
  3
*Model_Space
  1

  0
ENDBLK
  5
21
100
AcDbEntity
  8
0
100
AcDbBlockEnd
  0
BLOCK
  5
1C
100
AcDbEntity
 67
1
  8
0
100
AcDbBlockBegin
  2
*Paper_Space
 70
0
 10
0.0
 20
0.0
 30
0.0
  3
*Paper_Space
  1

  0
ENDBLK
  5
1D
100
AcDbEntity
 67
1
  8
0
100
AcDbBlockEnd
  0
BLOCK
  5
24
100
AcDbEntity
  8
0
100
AcDbBlockBegin
  2
*Paper_Space0
 70
0
 10
0.0
 20
0.0
 30
0.0
  3
*Paper_Space0
  1

  0
ENDBLK
  5
25
100
AcDbEntity
  8
0
100
AcDbBlockEnd
  0
BLOCK
  5
4D
100
AcDbEntity
  8
0
100
AcDbBlockBegin
  2
*U1
 70
0
 10
0.0
 20
0.0
 30
0.0
  3
*U1
  1

  0
ENDBLK
  5
4E
100
AcDbEntity
  8
0
100
AcDbBlockEnd
  0
BLOCK
  5
4F
100
AcDbEntity
  8
0
100
AcDbBlockBegin
  2
*U2
 70
0
 10
0.0
 20
0.0
 30
0.0
  3
*U2
  1

  0
ENDBLK
  5
50
100
AcDbEntity
  8
0
100
AcDbBlockEnd
  0
BLOCK
  5
51
100
AcDbEntity
  8
0
100
AcDbBlockBegin
  2
*U3
 70
0
 10
0.0
 20
0.0
 30
0.0
  3
*U3
  1

  0
ENDBLK
  5
52
100
AcDbEntity
  8
0
100
AcDbBlockEnd
  0
BLOCK
  5
53
100
AcDbEntity
  8
0
100
AcDbBlockBegin
  2
*U4
 70
0
 10
0.0
 20
0.0
 30
0.0
  3
*U4
  1

  0
ENDBLK
  5
54
100
AcDbEntity
  8
0
100
AcDbBlockEnd
  0
BLOCK
  5
55
100
AcDbEntity
  8
0
100
AcDbBlockBegin
  2
*U5
 70
0
 10
0.0
 20
0.0
 30
0.0
  3
*U5
  1

  0
ENDBLK
  5
56
100
AcDbEntity
  8
0
100
AcDbBlockEnd
  0
ENDSEC
  0
SECTION
  2
ENTITIES
  0
LWPOLYLINE
  5
57
  8
invader1
 62
256
370
-1
  6
ByLayer
100
AcDbEntity
100
AcDbPolyline
 90
56
 70
0
 10
36.000016232198206
 20
12.0000376568478089
 10
36.000016232198206
 20
15.0000287844808042
 10
33.0000251045651964
 20
15.0000287844808042
 10
33.0000251045651964
 20
18.0000199121137996
 10
30.0000339769321016
 20
18.0000199121137996
 10
27.0000428492991063
 20
18.0000199121137996
 10
27.0000428492991063
 20
21.0001832946348088
 10
30.0000339769321016
 20
21.0001832946348088
 10
30.0000339769321016
 20
24.0001744222678042
 10
33.0000251045651964
 20
24.0001744222678042
 10
33.0000251045651964
 20
27.0001655499009132
 10
28.5000384131156039
 20
27.0001655499009132
 10
28.5000384131156039
 20
24.0001744222678042
 10
25.5000472854825944
 20
24.0001744222678042
 10
24.000051721666054
 20
24.0001744222678042
 10
24.000051721666054
 20
18.0000199121137996
 10
15.0000783387669401
 20
18.0000199121137996
 10
15.0000783387669401
 20
24.0001744222678042
 10
10.5000916473173902
 20
24.0001744222678042
 10
10.5000916473173902
 20
27.0001655499009132
 10
6.0001049558678261
 20
27.0001655499009132
 10
6.0001049558678261
 20
24.0001744222678042
 10
9.0000960835008641
 20
24.0001744222678042
 10
9.0000960835008641
 20
21.0001832946348088
 10
12.0000872111339021
 20
21.0001832946348088
 10
12.0000872111339021
 20
18.0000199121137996
 10
6.0001049558678261
 20
18.0000199121137996
 10
6.0001049558678261
 20
15.0000287844808042
 10
3.0001138282347881
 20
15.0000287844808042
 10
3.0001138282347881
 20
12.0000376568478089
 10
0.0001227006017501
 20
12.0000376568478089
 10
0.0001227006017501
 20
3.0000642739487091
 10
3.0001138282347881
 20
3.0000642739487091
 10
3.0001138282347881
 20
9.0000465292146998
 10
6.0001049558678261
 20
9.0000465292146998
 10
6.0001049558678261
 20
3.0000642739487091
 10
9.0000960835008641
 20
3.0000642739487091
 10
9.0000960835008641
 20
0.0000731463156001
 10
18.0000694663999781
 20
0.0000731463156001
 10
18.0000694663999781
 20
3.0000642739487091
 10
12.0000872111339021
 20
3.0000642739487091
 10
12.0000872111339021
 20
6.0000554015817045
 10
27.0000428492991063
 20
6.0000554015817045
 10
27.0000428492991063
 20
3.0000642739487091
 10
21.0000605940330161
 20
3.0000642739487091
 10
21.0000605940330161
 20
0.0000731463156001
 10
25.5000472854825944
 20
0.0000731463156001
 10
30.0000339769321016
 20
0.0000731463156001
 10
30.0000339769321016
 20
3.0000642739487091
 10
33.0000251045651964
 20
3.0000642739487091
 10
33.0000251045651964
 20
9.0000465292146998
 10
36.000016232198206
 20
9.0000465292146998
 10
36.000016232198206
 20
3.0000642739487091
 10
39.0000073598313008
 20
3.0000642739487091
 10
39.0000073598313008
 20
12.0000376568478089
 10
36.000016232198206
 20
12.0000376568478089
  0
LWPOLYLINE
  5
58
  8
invader1
 62
256
370
-1
  6
ByLayer
100
AcDbEntity
100
AcDbPolyline
 90
5
 70
0
 10
15.0000783387669401
 20
12.0000376568478089
 10
12.0000872111339021
 20
12.0000376568478089
 10
12.0000872111339021
 20
15.0000287844808042
 10
15.0000783387669401
 20
15.0000287844808042
 10
15.0000783387669401
 20
12.0000376568478089
  0
LWPOLYLINE
  5
59
  8
invader1
 62
256
370
-1
  6
ByLayer
100
AcDbEntity
100
AcDbPolyline
 90
5
 70
0
 10
27.0000428492991063
 20
12.0000376568478089
 10
24.000051721666054
 20
12.0000376568478089
 10
24.000051721666054
 20
15.0000287844808042
 10
27.0000428492991063
 20
15.0000287844808042
 10
27.0000428492991063
 20
12.0000376568478089
  0
LWPOLYLINE
  5
5A
  8
invader2
 62
256
370
-1
  6
ByLayer
100
AcDbEntity
100
AcDbPolyline
 90
39
 70
0
 10
29.9999112763303657
 20
3.0003356374087957
 10
28.5002602222896684
 20
3.0003356374087957
 10
28.5002602222896684
 20
6.0003267650418053
 10
25.5002690946565735
 20
6.0003267650418053
 10
25.5002690946565735
 20
9.0003178926749001
 10
32.9999024039633753
 20
9.0003178926749001
 10
32.9999024039633753
 20
18.0002912755739999
 10
29.9999112763303657
 20
18.0002912755739999
 10
29.9999112763303657
 20
21.0002824032069952
 10
23.9999290210642755
 20
21.0002824032069952
 10
23.9999290210642755
 20
24.0002735308399906
 10
14.9999556381651757
 20
24.0002735308399906
 10
8.999973382899114
 20
24.0002735308399906
 10
8.999973382899114
 20
21.0002824032069952
 10
2.999991127633038
 20
21.0002824032069952
 10
2.999991127633038
 20
18.0002912755739999
 10
0.0
 20
18.0002912755739999
 10
0.0
 20
9.0003178926749001
 10
7.4999778190825879
 20
9.0003178926749001
 10
7.4999778190825879
 20
6.0003267650418053
 10
4.4999866914495499
 20
6.0003267650418053
 10
4.4999866914495499
 20
3.0003356374087957
 10
0.0
 20
3.0003356374087957
 10
0.0
 20
0.0
 10
7.4999778190825879
 20
0.0
 10
7.4999778190825879
 20
3.0003356374087957
 10
10.4999689467156259
 20
3.0003356374087957
 10
10.4999689467156259
 20
6.0003267650418053
 10
13.4999600743486781
 20
6.0003267650418053
 10
13.4999600743486781
 20
3.0003356374087957
 10
19.5002868393905686
 20
3.0003356374087957
 10
19.4999423296147683
 20
6.0003267650418053
 10
22.5002779670235782
 20
6.0003267650418053
 10
22.5002779670235782
 20
3.0003356374087957
 10
25.4999245848808727
 20
3.0003356374087957
 10
25.4999245848808727
 20
0.0
 10
33.0002469137391756
 20
0.0
 10
33.0002469137391756
 20
3.0003356374087957
 10
29.9999112763303657
 20
3.0003356374087957
  0
LWPOLYLINE
  5
5B
  8
invader2
 62
256
370
-1
  6
ByLayer
100
AcDbEntity
100
AcDbPolyline
 90
5
 70
0
 10
13.4999600743486781
 20
12.0003090203078955
 10
8.999973382899114
 20
12.0003090203078955
 10
8.999973382899114
 20
15.000300147940905
 10
13.4999600743486781
 20
15.000300147940905
 10
13.4999600743486781
 20
12.0003090203078955
  0
LWPOLYLINE
  5
5C
  8
invader2
 62
256
370
-1
  6
ByLayer
100
AcDbEntity
100
AcDbPolyline
 90
5
 70
0
 10
23.9999290210642755
 20
12.0003090203078955
 10
19.4999423296147683
 20
12.0003090203078955
 10
19.4999423296147683
 20
15.000300147940905
 10
23.9999290210642755
 20
15.000300147940905
 10
23.9999290210642755
 20
12.0003090203078955
  0
LWPOLYLINE
  5
5D
  8
invader3
 62
256
370
-1
  6
ByLayer
100
AcDbEntity
100
AcDbPolyline
 90
37
 70
0
 10
35.999911276330387
 20
8.9999733828991992
 10
35.999911276330387
 20
17.999946765798299
 10
32.9999201486973561
 20
17.999946765798299
 10
32.9999201486973561
 20
20.9999378934312944
 10
23.999946765798235
 20
20.9999378934312944
 10
23.999946765798235
 20
24.0001012759523036
 10
11.999982255266076
 20
24.0001012759523036
 10
11.999982255266076
 20
20.9999378934312944
 10
3.000008872366962
 20
20.9999378934312944
 10
3.000008872366962
 20
17.999946765798299
 10
0.000017744733924
 20
17.999946765798299
 10
0.000017744733924
 20
8.9999733828991992
 10
6.0
 20
8.9999733828991992
 10
6.0
 20
5.9999822552660902
 10
3.000008872366962
 20
5.9999822552660902
 10
3.000008872366962
 20
2.9999911276330948
 10
6.0
 20
2.9999911276330948
 10
6.0
 20
0.0
 10
11.999982255266076
 20
0.0
 10
11.999982255266076
 20
2.9999911276330948
 10
8.9999911276330451
 20
2.9999911276330948
 10
8.9999911276330451
 20
5.9999822552660902
 10
14.999973382899114
 20
5.9999822552660902
 10
14.999973382899114
 20
8.9999733828991992
 10
20.99995563816519
 20
8.9999733828991992
 10
20.99995563816519
 20
5.9999822552660902
 10
26.999937893431273
 20
5.9999822552660902
 10
26.999937893431273
 20
2.9999911276330948
 10
23.999946765798235
 20
2.9999911276330948
 10
23.999946765798235
 20
0.0
 10
29.999929021064311
 20
0.0
 10
29.999929021064311
 20
2.9999911276330948
 10
32.9999201486973561
 20
2.9999911276330948
 10
32.9999201486973561
 20
5.9999822552660902
 10
29.999929021064311
 20
5.9999822552660902
 10
29.999929021064311
 20
8.9999733828991992
 10
35.999911276330387
 20
8.9999733828991992
  0
LWPOLYLINE
  5
5E
  8
invader3
 62
256
370
-1
  6
ByLayer
100
AcDbEntity
100
AcDbPolyline
 90
5
 70
0
 10
14.999973382899114
 20
11.9999645105321946
 10
8.9999911276330451
 20
11.9999645105321946
 10
8.9999911276330451
 20
14.9999556381653036
 10
14.999973382899114
 20
14.9999556381653036
 10
14.999973382899114
 20
11.9999645105321946
  0
LWPOLYLINE
  5
5F
  8
invader3
 62
256
370
-1
  6
ByLayer
100
AcDbEntity
100
AcDbPolyline
 90
5
 70
0
 10
26.999937893431273
 20
11.9999645105321946
 10
20.99995563816519
 20
11.9999645105321946
 10
20.99995563816519
 20
14.9999556381653036
 10
26.999937893431273
 20
14.9999556381653036
 10
26.999937893431273
 20
11.9999645105321946
  0
LWPOLYLINE
  5
60
  8
invader4
 62
256
370
-1
  6
ByLayer
100
AcDbEntity
100
AcDbPolyline
 90
45
 70
0
 10
23.9999467657981995
 20
9.0001456377869999
 10
23.9999467657981995
 20
15.0001278930531043
 10
20.9999556381652042
 20
15.0001278930531043
 10
20.9999556381652042
 20
18.0001190206860997
 10
17.9999645105322088
 20
18.0001190206860997
 10
17.9999645105322088
 20
21.0001101483192087
 10
14.9999733828990998
 20
21.0001101483192087
 10
14.9999733828990998
 20
24.0001012759522041
 10
8.999991127633109
 20
24.0001012759522041
 10
8.999991127633109
 20
21.0001101483192087
 10
6.0
 20
21.0001101483192087
 10
6.0
 20
18.0001190206860997
 10
3.0000088723670046
 20
18.0001190206860997
 10
3.0000088723670046
 20
15.0001278930531043
 10
0.0000177447338956
 20
15.0001278930531043
 10
0.0000177447338956
 20
9.0001456377869999
 10
1.500013308550507
 20
9.0001456377869999
 10
1.500013308550507
 20
6.0001545101540046
 10
0.0000177447338956
 20
6.0001545101540046
 10
0.0000177447338956
 20
3.0001633825210092
 10
1.500013308550507
 20
3.0001633825210092
 10
1.500013308550507
 20
0.0
 10
6.0
 20
0.0
 10
6.0
 20
3.0001633825210092
 10
4.5000044361835023
 20
3.0001633825210092
 10
4.5000044361835023
 20
6.0001545101540046
 10
6.0
 20
6.0001545101540046
 10
6.0
 20
9.0001456377869999
 10
8.999991127633109
 20
9.0001456377869999
 10
8.999991127633109
 20
6.0001545101540046
 10
14.9999733828990998
 20
6.0001545101540046
 10
14.9999733828990998
 20
9.0001456377869999
 10
17.9999645105322088
 20
9.0001456377869999
 10
17.9999645105322088
 20
6.0001545101540046
 10
19.4999600743487065
 20
6.0001545101540046
 10
19.4999600743487065
 20
3.0001633825210092
 10
17.9999645105322088
 20
3.0001633825210092
 10
17.9999645105322088
 20
0.0
 10
22.4999512019817018
 20
0.0
 10
22.4999512019817018
 20
3.0001633825210092
 10
23.9999467657981995
 20
3.0001633825210092
 10
23.9999467657981995
 20
6.0001545101540046
 10
22.4999512019817018
 20
6.0001545101540046
 10
22.4999512019817018
 20
9.0001456377869999
 10
23.9999467657981995
 20
9.0001456377869999
  0
LWPOLYLINE
  5
61
  8
invader4
 62
256
370
-1
  6
ByLayer
100
AcDbEntity
100
AcDbPolyline
 90
5
 70
0
 10
8.999991127633109
 20
12.000136765420109
 10
6.0
 20
12.000136765420109
 10
6.0
 20
15.0001278930531043
 10
8.999991127633109
 20
15.0001278930531043
 10
8.999991127633109
 20
12.000136765420109
  0
LWPOLYLINE
  5
62
  8
invader4
 62
256
370
-1
  6
ByLayer
100
AcDbEntity
100
AcDbPolyline
 90
5
 70
0
 10
17.9999645105322088
 20
12.000136765420109
 10
14.9999733828990998
 20
12.000136765420109
 10
14.9999733828990998
 20
15.0001278930531043
 10
17.9999645105322088
 20
15.0001278930531043
 10
17.9999645105322088
 20
12.000136765420109
  0
LWPOLYLINE
  5
63
  8
invader5
 62
256
370
-1
  6
ByLayer
100
AcDbEntity
100
AcDbPolyline
 90
41
 70
0
 10
44.9998935315964417
 20
9.0003178926749072
 10
44.9998935315964417
 20
12.0003090203079452
 10
41.9999024039634321
 20
12.0003090203079452
 10
41.9999024039634321
 20
15.0003001479409832
 10
38.9999112763303799
 20
15.0003001479409832
 10
38.9999112763303799
 20
18.0002912755740212
 10
32.9999290210643039
 20
18.0002912755740212
 10
32.9999290210643039
 20
21.0002824032070592
 10
14.999982255266076
 20
21.0002824032070592
 10
14.999982255266076
 20
18.0002912755740212
 10
9.0
 20
18.0002912755740212
 10
9.0
 20
15.0003001479409832
 10
6.000008872366962
 20
15.0003001479409832
 10
6.000008872366962
 20
12.0003090203079452
 10
3.0000177447339169
 20
12.0003090203079452
 10
3.0000177447339169
 20
9.0003178926749072
 10
0.0000266171008789
 20
9.0003178926749072
 10
0.0000266171008789
 20
6.0003267650418692
 10
6.000008872366962
 20
6.0003267650418692
 10
6.000008872366962
 20
3.0003356374088312
 10
9.0
 20
3.0003356374088312
 10
9.0
 20
0.0
 10
11.999991127633038
 20
0.0
 10
11.999991127633038
 20
3.0003356374088312
 10
14.999982255266076
 20
3.0003356374088312
 10
14.999982255266076
 20
6.0003267650418692
 10
20.999964510532152
 20
6.0003267650418692
 10
20.999964510532152
 20
3.0003356374088312
 10
26.9999467657982279
 20
3.0003356374088312
 10
26.9999467657982279
 20
6.0003267650418692
 10
32.9999290210643039
 20
6.0003267650418692
 10
32.9999290210643039
 20
3.0003356374088312
 10
35.9999201486973419
 20
3.0003356374088312
 10
35.9999201486973419
 20
0.0
 10
38.9999112763303799
 20
0.0
 10
38.9999112763303799
 20
3.0003356374088312
 10
41.9999024039634321
 20
3.0003356374088312
 10
41.9999024039634321
 20
6.0003267650418692
 10
47.9998846592295365
 20
6.0003267650418692
 10
47.9998846592295365
 20
9.0003178926749072
 10
44.9998935315964417
 20
9.0003178926749072
  0
LWPOLYLINE
  5
64
  8
invader5
 62
256
370
-1
  6
ByLayer
100
AcDbEntity
100
AcDbPolyline
 90
5
 70
0
 10
11.999991127633038
 20
9.0003178926749072
 10
9.0
 20
9.0003178926749072
 10
9.0
 20
12.0003090203079452
 10
11.999991127633038
 20
12.0003090203079452
 10
11.999991127633038
 20
9.0003178926749072
  0
LWPOLYLINE
  5
65
  8
invader5
 62
256
370
-1
  6
ByLayer
100
AcDbEntity
100
AcDbPolyline
 90
5
 70
0
 10
20.999964510532152
 20
9.0003178926749072
 10
17.999973382899114
 20
9.0003178926749072
 10
17.999973382899114
 20
12.0003090203079452
 10
20.999964510532152
 20
12.0003090203079452
 10
20.999964510532152
 20
9.0003178926749072
  0
LWPOLYLINE
  5
66
  8
invader5
 62
256
370
-1
  6
ByLayer
100
AcDbEntity
100
AcDbPolyline
 90
5
 70
0
 10
29.9999378934312659
 20
9.0003178926749072
 10
26.9999467657982279
 20
9.0003178926749072
 10
26.9999467657982279
 20
12.0003090203079452
 10
29.9999378934312659
 20
12.0003090203079452
 10
29.9999378934312659
 20
9.0003178926749072
  0
LWPOLYLINE
  5
67
  8
invader5
 62
256
370
-1
  6
ByLayer
100
AcDbEntity
100
AcDbPolyline
 90
5
 70
0
 10
38.9999112763303799
 20
9.0003178926749072
 10
35.9999201486973419
 20
9.0003178926749072
 10
35.9999201486973419
 20
12.0003090203079452
 10
38.9999112763303799
 20
12.0003090203079452
 10
38.9999112763303799
 20
9.0003178926749072
  0
ENDSEC
  0
SECTION
  2
OBJECTS
  0
DICTIONARY
  5
C
100
AcDbDictionary
280
0
281
1
  3
ACAD_GROUP
350
D
  3
ACAD_LAYOUT
350
1A
  3
ACAD_MLINESTYLE
350
17
  3
ACAD_PLOTSETTINGS
350
19
  3
ACAD_PLOTSTYLENAME
350
E
  3
AcDbVariableDictionary
350
68
  0
DICTIONARY
  5
D
100
AcDbDictionary
280
0
281
1
  0
ACDBDICTIONARYWDFLT
  5
E
100
AcDbDictionary
281
1
  3
Normal
350
F
100
AcDbDictionaryWithDefault
340
F
  0
ACDBPLACEHOLDER
  5
F
  0
DICTIONARY
  5
17
100
AcDbDictionary
280
0
281
1
  3
Standard
350
18
  0
MLINESTYLE
  5
18
100
AcDbMlineStyle
  2
STANDARD
 70
0
  3

 62
256
 51
90.0
 52
90.0
 71
2
 49
0.5
 62
256
  6
BYLAYER
 49
-0.5
 62
256
  6
BYLAYER
  0
DICTIONARY
  5
19
100
AcDbDictionary
280
0
281
1
  0
DICTIONARY
  5
1A
100
AcDbDictionary
281
1
  3
Layout1
350
1E
  3
Layout2
350
26
  3
Model
350
22
  0
LAYOUT
  5
1E
100
AcDbPlotSettings
  1

  2
C:\Program Files\AutoCAD 2002\plotters\DWF ePlot (optimized for plotting).pc3
  4

  6

 40
0.0
 41
0.0
 42
0.0
 43
0.0
 44
0.0
 45
0.0
 46
0.0
 47
0.0
 48
0.0
 49
0.0
140
0.0
141
0.0
142
1.0
143
1.0
 70
688
 72
0
 73
0
 74
5
  7

 75
16
147
1.0
148
0.0
149
0.0
100
AcDbLayout
  1
Layout1
 70
1
 71
1
 10
0.0
 20
0.0
 11
420.0
 21
297.0
 12
0.0
 22
0.0
 32
0.0
 14
100000000000000000000.0
 24
100000000000000000000.0
 34
100000000000000000000.0
 15
-100000000000000000000.0
 25
-100000000000000000000.0
 35
-100000000000000000000.0
146
0.0
 13
0.0
 23
0.0
 33
0.0
 16
1.0
 26
0.0
 36
0.0
 17
0.0
 27
1.0
 37
0.0
 76
0
330
1B
  0
LAYOUT
  5
22
100
AcDbPlotSettings
  1

  2
C:\Program Files\AutoCAD 2002\plotters\DWF ePlot (optimized for plotting).pc3
  4

  6

 40
0.0
 41
0.0
 42
0.0
 43
0.0
 44
0.0
 45
0.0
 46
0.0
 47
0.0
 48
0.0
 49
0.0
140
0.0
141
0.0
142
1.0
143
1.0
 70
1712
 72
0
 73
0
 74
0
  7

 75
0
147
1.0
148
0.0
149
0.0
100
AcDbLayout
  1
Model
 70
1
 71
0
 10
0.0
 20
0.0
 11
12.0
 21
9.0
 12
0.0
 22
0.0
 32
0.0
 14
0.0
 24
0.0
 34
0.0
 15
0.0
 25
0.0
 35
0.0
146
0.0
 13
0.0
 23
0.0
 33
0.0
 16
1.0
 26
0.0
 36
0.0
 17
0.0
 27
1.0
 37
0.0
 76
0
330
1F
  0
LAYOUT
  5
26
100
AcDbPlotSettings
  1

  2
C:\Program Files\AutoCAD 2002\plotters\DWF ePlot (optimized for plotting).pc3
  4

  6

 40
0.0
 41
0.0
 42
0.0
 43
0.0
 44
0.0
 45
0.0
 46
0.0
 47
0.0
 48
0.0
 49
0.0
140
0.0
141
0.0
142
1.0
143
1.0
 70
688
 72
0
 73
0
 74
5
  7

 75
16
147
1.0
148
0.0
149
0.0
100
AcDbLayout
  1
Layout2
 70
1
 71
2
 10
0.0
 20
0.0
 11
12.0
 21
9.0
 12
0.0
 22
0.0
 32
0.0
 14
0.0
 24
0.0
 34
0.0
 15
0.0
 25
0.0
 35
0.0
146
0.0
 13
0.0
 23
0.0
 33
0.0
 16
1.0
 26
0.0
 36
0.0
 17
0.0
 27
1.0
 37
0.0
 76
0
330
23
  0
DICTIONARY
  5
68
100
AcDbDictionary
281
1
  3
DIMASSOC
350
6A
  3
HIDETEXT
350
69
  0
DICTIONARYVAR
  5
69
100
DictionaryVariables
280
0
  1
2
  0
DICTIONARYVAR
  5
6A
100
DictionaryVariables
280
0
  1
1
  0
ENDSEC
  0
EOF
